<?xml version="1.0" standalone="no"?>
<!DOCTYPE svg PUBLIC "-//W3C//DTD SVG 20010904//EN"
 "http://www.w3.org/TR/2001/REC-SVG-20010904/DTD/svg10.dtd">
<svg version="1.0" xmlns="http://www.w3.org/2000/svg"
 width="1500.000000pt" height="1500.000000pt" viewBox="0 0 1500.000000 1500.000000"
 preserveAspectRatio="xMidYMid meet">

<g transform="translate(0.000000,1500.000000) scale(0.100000,-0.100000)"
fill="#000000" stroke="none">
<path d="M0 12685 l0 -2315 2403 -2 c1321 -1 2421 -1 2444 -1 24 1 40 -3 37
-8 -3 -5 0 -9 7 -9 10 0 10 -3 1 -12 -7 -7 -11 -35 -11 -62 1 -28 3 -43 6 -33
2 9 9 15 14 12 5 -4 9 2 9 12 1 15 2 16 9 3 5 -8 7 -28 3 -45 l-6 -30 -7 25
c-6 22 -7 22 -8 4 -1 -12 12 -36 28 -55 21 -24 32 -48 36 -84 15 -123 19 -138
36 -153 11 -9 19 -26 19 -37 0 -12 5 -26 11 -32 5 -5 13 -34 16 -64 3 -30 11
-72 19 -94 8 -22 14 -57 14 -77 0 -21 11 -61 23 -90 15 -33 26 -82 29 -129 4
-42 11 -93 16 -115 6 -21 18 -99 28 -171 18 -139 15 -306 -7 -388 -18 -70 -17
-74 32 -89 9 -2 31 -28 47 -58 17 -29 43 -66 57 -82 14 -16 25 -35 25 -42 0
-8 16 -21 36 -29 39 -16 63 -41 64 -64 0 -8 6 -22 14 -30 8 -9 16 -27 18 -41
5 -41 -25 -26 -89 42 -117 125 -208 196 -237 185 -14 -5 -60 -136 -52 -145 2
-2 12 10 22 27 24 41 37 44 76 17 19 -12 48 -28 65 -34 50 -17 115 -71 169
-139 68 -88 83 -127 85 -228 1 -47 5 -88 10 -90 4 -3 6 -24 4 -48 -3 -24 2
-60 12 -85 11 -30 14 -58 9 -97 -5 -45 -3 -60 13 -83 10 -15 22 -52 25 -82 3
-30 13 -82 22 -115 9 -33 20 -82 24 -108 10 -70 -6 -85 -105 -102 l-80 -15
102 4 101 4 36 -33 c20 -18 36 -39 36 -48 0 -8 8 -25 18 -38 11 -15 19 -44 20
-75 2 -59 64 -200 109 -250 15 -16 34 -47 41 -67 18 -50 101 -191 179 -302
183 -262 166 -230 167 -314 2 -121 -4 -127 -164 -182 -74 -25 -151 -55 -170
-66 -19 -11 -65 -36 -102 -57 -78 -43 -135 -104 -201 -214 -59 -100 -113 -152
-212 -203 -44 -23 -107 -58 -140 -80 -73 -46 -187 -87 -390 -140 -22 -6 -78
-24 -125 -41 -181 -63 -497 -166 -530 -173 -36 -7 -127 -38 -235 -80 -61 -23
-120 -44 -210 -71 -223 -69 -414 -132 -485 -161 -151 -62 -258 -112 -302 -140
-24 -15 -50 -32 -59 -38 -125 -80 -241 -182 -384 -340 -51 -57 -296 -434 -344
-530 -46 -93 -52 -113 -66 -215 -8 -52 -21 -133 -29 -180 -9 -47 -21 -116 -26
-154 -6 -37 -12 -71 -15 -75 -5 -9 -38 -176 -60 -306 -9 -55 -21 -110 -26
-123 -5 -13 -9 -40 -9 -62 0 -21 -11 -96 -25 -167 -14 -70 -32 -184 -40 -253
-24 -206 -35 -294 -41 -310 -3 -8 -10 -64 -15 -125 -5 -60 -15 -146 -23 -190
-7 -44 -28 -160 -45 -257 -17 -97 -37 -219 -45 -270 -33 -206 -118 -584 -171
-758 -10 -30 -19 -70 -22 -87 l-5 -33 5961 0 c3279 0 5961 2 5961 6 0 3 -11
46 -25 95 -15 52 -28 132 -32 187 -3 53 -15 131 -26 172 -12 46 -22 130 -27
220 -5 80 -13 208 -19 285 -7 77 -21 248 -31 380 -11 132 -27 287 -35 345 -9
58 -22 146 -30 195 -7 50 -21 128 -30 175 -9 47 -23 121 -30 165 -8 44 -22
107 -30 140 -9 33 -20 80 -25 105 -5 25 -16 77 -25 115 -8 39 -23 104 -31 145
-9 41 -23 104 -30 140 -8 36 -19 99 -25 140 -5 41 -16 113 -24 160 -8 47 -21
128 -30 180 -9 52 -23 116 -31 143 -14 40 -143 247 -205 325 -110 140 -245
260 -421 372 -183 117 -305 202 -550 382 -123 90 -235 146 -294 147 -12 1 -44
8 -70 16 -27 8 -101 28 -164 46 -128 35 -270 79 -373 115 -38 13 -77 24 -87
24 -11 0 -34 6 -52 14 -18 8 -69 25 -113 39 -44 14 -107 34 -140 46 -33 11
-112 34 -175 51 -221 61 -327 107 -383 169 -20 22 -60 87 -88 143 -28 56 -78
137 -110 179 -85 112 -137 147 -354 235 -188 76 -215 94 -244 157 -11 23 -22
76 -26 117 -4 41 -13 103 -20 137 -10 51 -10 79 2 165 16 107 18 113 108 251
72 112 135 251 177 393 35 116 42 155 43 234 3 171 16 293 37 347 21 54 24 56
93 68 33 6 37 9 20 15 -11 5 -33 11 -48 15 -16 3 -40 17 -53 30 l-25 25 1 222
c2 444 4 419 -30 519 -32 97 -37 124 -16 97 18 -24 29 -23 16 2 -7 13 -7 46
-1 99 22 200 208 437 328 418 40 -7 45 13 11 37 -31 22 -74 20 -109 -5 -37
-26 -124 -135 -170 -211 -18 -32 -37 -58 -41 -58 -5 0 -8 -7 -8 -15 0 -9 -9
-15 -24 -15 -19 0 -27 8 -36 35 -14 44 -5 87 26 125 14 16 44 68 67 117 l42
88 -1 185 c0 102 -3 221 -7 265 -4 44 -12 141 -17 215 -6 74 -17 167 -25 205
-8 39 -16 114 -18 168 -4 91 -3 101 20 134 62 92 86 220 85 455 0 111 -26 222
-58 248 -19 17 -18 27 10 97 45 110 34 162 -58 277 -34 43 -29 54 15 32 18 -9
34 -16 36 -16 3 0 -22 29 -54 64 -42 46 -62 77 -71 112 -9 34 -26 61 -56 90
-41 39 -116 74 -158 74 -22 0 -24 36 -6 87 15 41 1 89 -25 85 -37 -6 -14 48
84 197 56 85 128 206 161 270 65 125 162 276 185 290 8 4 14 11 14 14 -3 19 2
27 35 61 20 20 37 43 38 50 1 7 10 21 19 30 9 10 15 22 11 27 -3 5 2 12 10 15
9 3 13 10 10 15 -3 5 2 12 10 15 9 3 13 10 10 15 -3 5 0 9 6 9 6 0 9 4 5 9 -3
6 4 15 15 21 11 6 18 15 15 21 -4 5 -1 9 5 9 6 0 8 5 5 10 -3 6 -1 10 5 10 6
0 8 5 5 10 -3 6 1 13 9 16 9 3 14 9 11 14 -2 4 4 16 13 26 10 10 24 34 31 52
7 17 18 32 23 32 5 0 7 4 4 9 -3 5 1 11 9 15 8 3 15 15 15 26 0 12 4 18 10 15
5 -3 12 6 16 21 4 15 14 34 23 44 9 9 28 37 42 61 15 24 64 103 109 174 85
134 302 492 309 510 2 5 14 24 26 40 11 17 27 43 35 58 8 16 25 41 39 55 14
15 24 29 23 32 -4 13 10 40 19 34 5 -3 9 -2 8 3 -3 18 2 30 21 51 12 12 17 22
13 22 -4 0 1 6 10 13 9 6 17 18 19 26 2 8 9 22 16 30 7 9 12 20 11 25 0 5 4
12 9 15 5 3 23 27 38 53 29 47 127 205 189 303 31 50 75 131 75 140 0 3 -2450
5 -5445 5 l-5445 0 0 -2315z m7015 -235 c3 -5 -3 -10 -14 -10 -11 0 -23 5 -26
10 -3 6 3 10 14 10 11 0 23 -4 26 -10z m-105 -10 c13 -8 13 -10 -2 -10 -9 0
-20 5 -23 10 -8 13 5 13 25 0z m-170 -20 c0 -5 -4 -10 -9 -10 -6 0 -13 5 -16
10 -3 6 1 10 9 10 9 0 16 -4 16 -10z m130 -10 c8 -5 12 -11 9 -14 -3 -3 -14 1
-25 9 -21 16 -8 20 16 5z m730 -14 c0 -3 -4 -8 -10 -11 -5 -3 -10 -1 -10 4 0
6 5 11 10 11 6 0 10 -2 10 -4z m-530 -10 c0 -3 -4 -8 -10 -11 -5 -3 -10 -1
-10 4 0 6 5 11 10 11 6 0 10 -2 10 -4z m-254 -53 c-7 -7 -26 7 -26 19 0 6 6 6
15 -2 9 -7 13 -15 11 -17z m59 17 c3 -5 -1 -10 -9 -10 -9 0 -16 5 -16 10 0 6
4 10 9 10 6 0 13 -4 16 -10z m505 -10 c8 -15 8 -20 -2 -20 -7 0 -19 9 -26 20
-10 17 -10 20 3 20 8 0 19 -9 25 -20z m-797 -17 c-7 -2 -19 -2 -25 0 -7 3 -2
5 12 5 14 0 19 -2 13 -5z m692 -3 c-3 -5 3 -10 14 -10 12 0 21 -4 21 -10 0 -5
-25 -10 -56 -10 -34 0 -53 4 -49 10 3 6 0 10 -7 10 -9 0 -9 3 2 10 20 13 83
13 75 0z m-465 -9 c0 -10 -78 -26 -87 -18 -3 3 10 10 28 16 45 12 59 13 59 2z
m-830 -25 c0 -11 -19 -15 -25 -6 -3 5 1 10 9 10 9 0 16 -2 16 -4z m2270 -11
c10 -12 10 -15 -4 -15 -9 0 -16 7 -16 15 0 8 2 15 4 15 2 0 9 -7 16 -15z
m-1463 -12 c-9 -9 -19 -14 -23 -11 -10 10 6 28 24 28 15 0 15 -1 -1 -17z
m-587 -23 c0 -5 -4 -10 -10 -10 -5 0 -10 5 -10 10 0 6 5 10 10 10 6 0 10 -4
10 -10z m510 0 c-20 -13 -33 -13 -25 0 3 6 14 10 23 10 15 0 15 -2 2 -10z
m373 -25 c1 -6 -10 -11 -25 -13 -31 -4 -39 14 -10 21 23 6 33 4 35 -8z m-1003
-15 c0 -5 -2 -10 -4 -10 -3 0 -8 5 -11 10 -3 6 -1 10 4 10 6 0 11 -4 11 -10z
m280 -15 c0 -9 -9 -15 -25 -15 -29 0 -34 16 -7 23 30 8 32 7 32 -8z m75 5 c3
-5 1 -10 -4 -10 -6 0 -11 5 -11 10 0 6 2 10 4 10 3 0 8 -4 11 -10z m200 -10
c-3 -5 -11 -10 -16 -10 -6 0 -7 5 -4 10 3 6 11 10 16 10 6 0 7 -4 4 -10z m425
-12 c0 -6 -7 -7 -16 -4 -9 3 -20 6 -25 6 -6 0 -8 4 -5 9 8 12 46 2 46 -11z
m-860 8 c0 -3 -4 -8 -10 -11 -5 -3 -10 -1 -10 4 0 6 5 11 10 11 6 0 10 -2 10
-4z m1905 -26 c3 -5 1 -10 -4 -10 -6 0 -11 5 -11 10 0 6 2 10 4 10 3 0 8 -4
11 -10z m135 -44 c0 -3 -4 -8 -10 -11 -5 -3 -10 -1 -10 4 0 6 5 11 10 11 6 0
10 -2 10 -4z m-1244 -16 c16 -6 35 -19 42 -30 11 -18 10 -20 -14 -20 -14 0
-23 4 -19 10 4 6 -7 10 -24 10 -33 0 -34 1 -25 24 7 19 4 18 40 6z m1121 -6
c-3 -3 -12 -4 -19 -1 -8 3 -5 6 6 6 11 1 17 -2 13 -5z m-1667 -34 c0 -5 -5
-10 -11 -10 -5 0 -7 5 -4 10 3 6 8 10 11 10 2 0 4 -4 4 -10z m1620 -20 c0 -5
-18 -10 -39 -10 -22 0 -43 5 -46 10 -4 6 12 10 39 10 25 0 46 -4 46 -10z
m-2035 -10 c-3 -5 -11 -10 -16 -10 -6 0 -7 5 -4 10 3 6 11 10 16 10 6 0 7 -4
4 -10z m505 -10 c0 -5 -5 -10 -11 -10 -5 0 -7 5 -4 10 3 6 8 10 11 10 2 0 4
-4 4 -10z m561 -10 c24 -19 24 -19 3 -20 -32 0 -90 26 -73 33 27 10 47 7 70
-13z m1263 5 c4 -12 0 -14 -22 -9 -41 10 -50 24 -15 24 18 0 33 -6 37 -15z
m-1383 -50 c1 -16 -16 -16 -36 0 -19 15 -19 15 8 13 15 -2 28 -7 28 -13z
m-896 -5 c-3 -5 -10 -10 -16 -10 -5 0 -9 5 -9 10 0 6 7 10 16 10 8 0 12 -4 9
-10z m1764 1 c9 -6 10 -10 2 -16 -15 -8 -41 1 -41 15 0 12 20 13 39 1z m118 1
c8 -5 8 -11 0 -23 -11 -15 -14 -14 -30 7 -17 23 -17 24 0 24 10 0 23 -4 30 -8z
m-1352 -12 c3 -5 -1 -10 -10 -10 -9 0 -13 5 -10 10 3 6 8 10 10 10 2 0 7 -4
10 -10z m-490 -10 c-3 -5 -11 -10 -16 -10 -6 0 -7 5 -4 10 3 6 11 10 16 10 6
0 7 -4 4 -10z m-49 -36 c-23 -17 -36 -18 -36 -4 0 12 42 31 50 23 3 -3 -4 -11
-14 -19z m637 19 c-7 -2 -21 -2 -30 0 -10 3 -4 5 12 5 17 0 24 -2 18 -5z
m-456 -39 c-3 -3 -12 -4 -19 -1 -8 3 -5 6 6 6 11 1 17 -2 13 -5z m138 -5 c4
-6 5 -12 2 -15 -7 -7 -37 7 -37 17 0 13 27 11 35 -2z m722 -5 c-3 -3 -12 -4
-19 -1 -8 3 -5 6 6 6 11 1 17 -2 13 -5z m927 -40 c10 -25 1 -27 -19 -4 -15 17
-16 20 -3 20 9 0 19 -7 22 -16z m-947 0 c-3 -3 -12 -4 -19 -1 -8 3 -5 6 6 6
11 1 17 -2 13 -5z m-810 -10 c-3 -3 -12 -4 -19 -1 -8 3 -5 6 6 6 11 1 17 -2
13 -5z m458 -24 c-3 -5 -10 -10 -16 -10 -5 0 -9 5 -9 10 0 6 7 10 16 10 8 0
12 -4 9 -10z m2449 -91 c-8 -13 -24 -1 -24 18 0 13 3 13 15 3 8 -7 12 -16 9
-21z m-1900 -8 c3 -4 -6 -6 -19 -3 -14 2 -25 6 -25 8 0 8 39 4 44 -5z m674
-16 c-3 -3 -9 2 -12 12 -6 14 -5 15 5 6 7 -7 10 -15 7 -18z m-194 -26 c-3 -5
-10 -7 -15 -3 -5 3 -7 10 -3 15 3 5 10 7 15 3 5 -3 7 -10 3 -15z m-419 1 c3
-5 1 -10 -4 -10 -6 0 -11 5 -11 10 0 6 2 10 4 10 3 0 8 -4 11 -10z m-1715 -74
c0 -3 -4 -8 -10 -11 -5 -3 -10 -1 -10 4 0 6 5 11 10 11 6 0 10 -2 10 -4z
m2135 -7 c11 -17 -1 -21 -15 -4 -8 9 -8 15 -2 15 6 0 14 -5 17 -11z m245 -20
c0 -6 -4 -7 -10 -4 -5 3 -10 11 -10 16 0 6 5 7 10 4 6 -3 10 -11 10 -16z m-84
-36 c4 -16 11 -34 17 -41 5 -7 7 -15 5 -18 -7 -6 -48 58 -48 75 0 22 20 10 26
-16z m-631 -43 c3 -6 -1 -7 -9 -4 -18 7 -21 14 -7 14 6 0 13 -4 16 -10z m505
0 c0 -5 -2 -10 -4 -10 -3 0 -8 5 -11 10 -3 6 -1 10 4 10 6 0 11 -4 11 -10z
m255 -41 c11 -16 1 -19 -13 -3 -7 8 -8 14 -3 14 5 0 13 -5 16 -11z m-485 -9
c0 -5 -2 -10 -4 -10 -3 0 -8 5 -11 10 -3 6 -1 10 4 10 6 0 11 -4 11 -10z m101
-7 c13 -16 12 -17 -3 -4 -17 13 -22 21 -14 21 2 0 10 -8 17 -17z m-1891 3 c0
-3 -4 -8 -10 -11 -5 -3 -10 -1 -10 4 0 6 5 11 10 11 6 0 10 -2 10 -4z m2073
-28 c41 -56 42 -63 4 -34 -20 16 -37 30 -37 31 0 2 -3 10 -6 19 -11 28 14 17
39 -16z m-1093 -28 c0 -5 -8 -10 -17 -10 -15 0 -16 2 -3 10 19 12 20 12 20 0z
m713 -6 c33 -17 93 -64 82 -64 -12 0 -71 33 -98 56 -33 28 -28 30 16 8z m302
-11 l18 -28 -21 19 c-12 11 -22 23 -22 28 0 14 7 9 25 -19z m1565 1 c46 -31
48 -41 19 -101 -22 -46 -30 -51 -51 -30 -7 8 -18 12 -25 10 -17 -6 -25 13 -28
65 -3 52 8 82 31 82 8 0 32 -12 54 -26z m-1972 3 c7 -8 7 -18 2 -27 -8 -13
-10 -12 -10 3 0 9 -4 17 -10 17 -5 0 -10 5 -10 10 0 14 16 12 28 -3z m-547
-11 c8 4 9 3 5 -4 -8 -14 -42 -16 -50 -3 -9 14 6 22 20 10 7 -6 19 -7 25 -3z
m1274 -74 c-8 -9 -65 54 -65 71 0 6 17 -5 36 -26 20 -21 33 -42 29 -45z m100
31 c26 -39 31 -53 18 -53 -8 0 -53 73 -53 84 0 14 11 4 35 -31z m-1308 21 c-3
-3 -12 -4 -19 -1 -8 3 -5 6 6 6 11 1 17 -2 13 -5z m-1267 -29 c-7 -8 -20 -15
-29 -15 -11 0 -8 5 9 14 33 19 35 19 20 1z m1710 -5 c0 -5 -2 -10 -4 -10 -3 0
-8 5 -11 10 -3 6 -1 10 4 10 6 0 11 -4 11 -10z m140 -73 c0 -5 -13 1 -30 13
-16 12 -30 24 -30 26 0 3 14 -3 30 -13 17 -9 30 -21 30 -26z m-531 7 c17 -4
31 -10 31 -14 0 -10 -92 0 -104 11 -12 11 27 12 73 3z m457 -36 c18 -20 18
-21 1 -15 -10 4 -22 7 -27 7 -4 0 -10 7 -14 15 -8 23 18 18 40 -7z m512 -16
c2 -7 -2 -10 -12 -6 -9 3 -16 11 -16 16 0 13 23 5 28 -10z m162 -94 c0 -12
-93 89 -98 106 -2 6 20 -13 47 -42 28 -29 51 -58 51 -64z m-712 39 c23 -23 42
-47 42 -52 0 -4 8 -17 18 -28 9 -11 -4 -5 -31 14 -39 27 -87 85 -87 105 0 13
21 -1 58 -39z m44 26 c10 -9 18 -20 18 -25 0 -13 -37 9 -44 27 -7 20 3 19 26
-2z m-350 -4 c77 -16 87 -32 14 -24 -63 8 -132 35 -89 35 12 0 46 -5 75 -11z
m77 -90 c53 -17 100 -35 105 -40 5 -4 -27 -6 -71 -4 -57 2 -97 11 -146 31 -36
15 -64 30 -62 34 10 16 85 7 174 -21z m2287 -51 c47 -91 66 -206 37 -215 -7
-3 -25 22 -42 54 -16 33 -36 65 -45 72 -9 8 -16 23 -16 35 0 12 -9 39 -20 61
-11 22 -20 41 -20 42 0 2 18 3 40 3 38 0 41 -2 66 -52z m-2411 -8 c3 -6 -5
-10 -19 -10 -14 0 -28 5 -31 10 -3 6 5 10 19 10 14 0 28 -4 31 -10z m-1885
-25 c-7 -9 -15 -13 -17 -11 -7 7 7 26 19 26 6 0 6 -6 -2 -15z m2007 -12 c40
-10 73 -22 73 -27 0 -4 -10 -5 -22 -2 -13 4 -51 12 -85 18 -35 6 -63 15 -63
19 0 13 16 11 97 -8z m-502 -43 c-3 -5 -15 -10 -26 -10 -10 0 -19 5 -19 10 0
6 12 10 26 10 14 0 23 -4 19 -10z m125 -10 c13 -9 13 -10 0 -10 -8 0 -22 5
-30 10 -13 9 -13 10 0 10 8 0 22 -5 30 -10z m63 -7 c-7 -2 -19 -2 -25 0 -7 3
-2 5 12 5 14 0 19 -2 13 -5z m362 -36 c7 -7 4 -8 -8 -3 -10 3 -25 6 -33 6 -8
0 -14 5 -14 11 0 12 40 2 55 -14z m-495 -7 c8 -5 11 -12 8 -16 -10 -9 -78 5
-78 16 0 13 50 13 70 0z m840 -24 c38 -1 64 -7 85 -22 38 -26 123 -54 167 -54
18 0 71 -13 118 -30 88 -30 129 -36 146 -21 12 12 135 18 152 7 20 -12 42 23
35 57 -3 16 -1 27 6 27 6 0 11 -4 11 -10 0 -5 6 -10 12 -10 7 0 32 -21 55 -47
34 -38 44 -43 49 -30 3 9 17 17 30 17 25 0 33 -15 12 -23 -10 -3 -10 -8 1 -21
13 -15 16 -15 29 -2 13 12 13 18 2 30 -15 20 -3 21 53 5 26 -7 37 -15 37 -29
0 -30 20 -24 33 10 12 33 24 38 33 15 4 -8 13 -15 20 -15 8 0 17 -7 20 -15 4
-9 11 -15 18 -14 25 3 36 -2 36 -15 0 -7 6 -19 14 -25 8 -7 12 -20 9 -30 -2
-9 2 -23 11 -30 8 -7 12 -20 9 -29 -3 -10 -1 -13 4 -7 4 6 17 17 27 25 18 14
19 13 12 -32 -4 -29 -3 -49 4 -53 6 -4 8 -24 4 -54 -6 -50 9 -78 27 -50 14 22
25 -4 32 -75 7 -77 -5 -136 -34 -159 -12 -10 -19 -20 -16 -24 4 -3 14 0 23 8
16 13 17 11 11 -17 -5 -26 -1 -35 21 -52 20 -17 26 -30 25 -57 -1 -19 3 -38 8
-41 17 -10 9 -32 -10 -27 -16 4 -18 -1 -17 -35 0 -22 5 -40 10 -39 17 3 19
-36 2 -45 -9 -5 -16 -17 -16 -26 0 -10 -6 -24 -12 -30 -10 -10 -10 -15 2 -22
8 -5 10 -10 5 -10 -7 0 -9 -14 -7 -34 2 -18 -1 -37 -7 -40 -6 -4 -11 -20 -11
-36 0 -23 -4 -28 -16 -23 -13 5 -15 2 -9 -18 4 -13 13 -28 19 -32 7 -6 4 -7
-7 -3 -13 4 -20 0 -24 -14 -3 -11 -8 -20 -10 -20 -10 0 -144 50 -171 64 -15 7
-47 17 -72 20 -25 4 -57 9 -73 12 -26 5 -27 4 -17 -21 10 -27 10 -28 -22 -20
-62 14 -151 14 -180 -1 -15 -8 -53 -14 -86 -14 -46 0 -63 -5 -82 -22 -21 -20
-41 -25 -127 -31 -13 -1 -23 -5 -23 -9 0 -8 -74 -58 -85 -58 -3 0 -5 7 -5 15
0 23 -18 18 -26 -7 -3 -13 -25 -40 -48 -61 -64 -58 -66 -60 -66 -44 0 8 -9 22
-20 32 -27 24 -25 7 4 -46 28 -52 40 -108 26 -129 -8 -12 -11 -11 -16 8 -10
36 -29 19 -26 -22 2 -20 -1 -36 -6 -36 -14 0 -35 28 -28 38 3 5 -8 28 -25 50
-27 36 -33 40 -51 31 -11 -6 -31 -8 -44 -5 -26 7 -34 -8 -9 -18 22 -8 18 -37
-5 -43 -25 -7 -25 -9 -2 -30 33 -31 85 -55 92 -43 5 7 11 6 20 -5 10 -12 10
-15 -4 -15 -24 0 -19 -14 14 -39 17 -12 28 -26 25 -31 -3 -4 0 -19 5 -32 10
-23 10 -23 6 0 -3 15 1 22 11 22 9 0 30 8 47 19 17 10 45 22 61 25 l30 8 -26
-29 c-40 -44 -59 -75 -59 -100 0 -34 29 -29 69 12 19 19 39 35 46 35 7 0 36
23 65 50 29 28 59 50 67 50 12 0 13 -3 4 -14 -8 -10 -9 -16 -1 -21 5 -3 10 -1
10 4 0 6 5 11 10 11 21 0 9 -18 -19 -28 -27 -10 -128 -104 -157 -148 -31 -46
18 -94 65 -65 12 8 12 13 -3 36 l-18 27 43 36 c24 21 45 36 49 35 3 -1 14 6
25 16 41 37 54 34 76 -17 29 -68 75 -112 116 -112 18 0 33 5 33 11 0 7 11 8
31 4 17 -4 45 -4 62 -1 33 6 41 19 78 129 11 31 17 36 34 31 31 -10 65 -35 76
-56 13 -24 -13 -58 -45 -58 -20 -1 -19 -2 4 -15 14 -8 34 -15 45 -15 11 -1 38
-8 60 -16 56 -21 59 -21 60 -4 0 8 17 19 40 26 36 10 98 45 133 74 7 6 16 8
21 5 5 -3 12 -1 16 5 3 5 -1 10 -9 10 -9 0 -16 6 -16 13 0 14 35 47 49 47 5 0
14 7 21 15 9 11 16 13 24 5 17 -17 56 -12 56 8 0 27 20 42 55 41 27 0 33 -6
57 -57 29 -63 71 -169 76 -192 1 -8 5 -37 8 -65 3 -27 9 -61 14 -75 4 -14 11
-34 15 -45 3 -11 9 -15 13 -10 4 6 15 16 25 24 15 12 17 11 17 -5 0 -11 -13
-28 -30 -39 -17 -11 -26 -23 -20 -29 4 -4 6 -15 3 -22 -3 -8 1 -14 8 -15 8 -1
3 -4 -10 -8 -23 -6 -23 -7 -6 -24 16 -16 16 -19 1 -36 -10 -11 -12 -21 -6 -27
15 -15 30 -74 19 -74 -5 0 -9 5 -9 12 0 9 -3 9 -12 0 -7 -7 -8 -16 -1 -24 5
-7 10 -54 11 -104 2 -86 1 -92 -24 -117 -24 -24 -25 -28 -10 -43 15 -15 15
-19 -6 -52 -12 -21 -28 -41 -35 -45 -7 -4 -13 -18 -13 -31 0 -13 -9 -31 -21
-42 -12 -11 -18 -26 -15 -37 2 -11 1 -30 -4 -43 -8 -21 -12 -23 -29 -12 -28
17 -38 2 -16 -22 10 -11 13 -20 7 -20 -5 0 -24 -22 -41 -49 -16 -27 -39 -52
-50 -56 -12 -3 -21 -15 -21 -25 0 -11 -9 -24 -20 -30 -11 -6 -17 -16 -14 -25
4 -8 -1 -18 -10 -21 -9 -3 -16 -15 -16 -26 0 -15 5 -19 20 -15 11 3 23 1 26
-5 10 -16 10 -148 0 -148 -4 0 -6 -10 -2 -23 3 -12 -1 -34 -8 -48 -8 -17 -10
-33 -4 -49 10 -28 4 -37 -15 -21 -21 17 -36 -6 -33 -52 1 -23 -5 -45 -14 -55
-29 -31 -77 -107 -85 -132 -4 -14 -14 -42 -23 -62 -14 -31 -21 -36 -44 -34
-24 3 -26 1 -17 -16 5 -10 12 -34 15 -54 4 -32 2 -35 -17 -29 -19 6 -21 4 -17
-18 4 -19 1 -24 -10 -19 -12 4 -14 0 -10 -16 4 -15 2 -22 -8 -22 -18 0 -18 -3
6 -49 17 -35 18 -40 3 -45 -9 -4 -23 0 -33 9 -17 16 -30 11 -30 -12 0 -7 6
-13 13 -13 22 0 38 -46 27 -75 -10 -27 -30 -34 -30 -10 0 8 -7 15 -15 15 -19
0 -19 -17 0 -50 25 -45 17 -57 -16 -22 -32 34 -49 41 -49 18 0 -8 -7 -17 -16
-20 -15 -6 -15 -8 -2 -24 25 -29 31 -43 17 -41 -28 3 -38 -1 -33 -16 4 -8 1
-15 -6 -15 -8 0 -9 -4 -3 -12 6 -7 13 -21 16 -31 6 -16 5 -16 -17 -2 -40 26
-56 11 -50 -48 4 -29 10 -60 15 -69 12 -22 11 -28 -1 -28 -5 0 -10 6 -10 13
-1 12 -55 77 -65 77 -9 0 -5 -39 5 -45 6 -4 8 -11 4 -16 -3 -6 -10 -6 -17 -1
-7 5 -19 10 -27 10 -8 0 -25 4 -38 7 -18 6 -21 4 -16 -9 3 -9 10 -16 15 -16 5
0 12 -8 16 -17 3 -10 17 -30 31 -45 28 -30 23 -51 -5 -25 -10 8 -30 19 -45 22
-24 6 -28 4 -28 -14 0 -12 -5 -21 -10 -21 -17 0 -23 29 -9 46 11 13 9 14 -17
8 -40 -9 -40 -10 -21 -49 24 -50 21 -79 -3 -35 -10 19 -22 42 -25 50 -4 8 -11
23 -16 32 -5 10 -9 25 -9 33 0 8 -4 15 -9 15 -5 0 -5 -16 0 -37 6 -28 5 -42
-6 -52 -12 -12 -16 -11 -26 12 -7 15 -18 27 -26 27 -15 0 -18 -26 -3 -35 15
-9 13 -78 -2 -73 -7 3 -15 15 -16 29 -2 13 -10 32 -18 43 -9 13 -10 24 -4 31
7 8 2 16 -14 25 -26 14 -44 52 -20 43 18 -7 29 23 16 40 -8 9 -7 27 3 62 9 27
13 57 9 67 -3 10 0 18 6 18 6 0 8 -4 5 -10 -3 -5 -2 -10 4 -10 6 0 13 17 17
38 4 20 10 42 13 47 4 6 8 24 9 40 2 24 -4 34 -32 52 -21 13 -38 19 -41 13 -3
-6 -17 -10 -31 -10 -13 0 -24 -5 -24 -11 0 -6 -7 -8 -17 -5 -9 4 -19 2 -23 -4
-5 -7 -15 -8 -33 -1 -20 8 -30 7 -41 -4 -8 -9 -17 -11 -20 -6 -9 15 -161 4
-196 -14 -18 -9 -29 -12 -26 -7 4 6 2 13 -3 16 -5 4 -13 1 -17 -5 -4 -7 -27
-9 -71 -4 -56 6 -66 4 -78 -12 -13 -17 -14 -17 -37 5 -28 26 -38 28 -38 7 0
-21 -63 -20 -97 2 -24 16 -26 16 -38 0 -11 -15 -14 -15 -25 -2 -6 8 -27 14
-45 13 -19 -1 -40 6 -50 16 -24 23 -59 17 -63 -11 -3 -17 3 -24 23 -29 16 -4
30 -17 36 -32 11 -28 3 -82 -12 -82 -23 0 -6 -21 21 -26 23 -5 30 -12 30 -30
0 -19 5 -23 23 -21 19 2 22 -3 25 -41 3 -36 -2 -49 -27 -78 -21 -24 -30 -42
-26 -57 3 -15 -5 -33 -25 -57 -19 -22 -30 -29 -30 -19 0 9 9 24 20 34 11 10
20 25 20 33 0 11 -9 7 -32 -14 l-32 -29 17 27 c23 38 21 45 -5 21 -23 -21 -68
-40 -68 -28 0 3 17 22 38 41 20 19 30 32 21 29 -10 -4 -20 -2 -23 3 -3 6 -20
5 -43 -4 -46 -16 -78 -17 -45 -2 29 14 28 26 -3 34 -14 3 -25 11 -25 16 0 5
-13 7 -30 3 -33 -7 -60 11 -60 40 0 12 -6 15 -19 10 -16 -5 -20 1 -26 34 -4
22 -3 46 1 53 5 10 4 11 -7 1 -16 -15 -69 -17 -69 -3 0 6 5 10 10 10 6 0 10 6
10 13 0 7 13 26 30 42 38 36 31 44 -13 16 -54 -33 -93 -9 -41 25 17 12 22 20
15 27 -7 7 -19 2 -36 -17 -14 -16 -29 -25 -33 -21 -4 4 -2 10 4 12 7 2 10 13
7 24 -3 10 0 26 7 34 7 9 9 19 5 23 -4 4 -9 2 -12 -4 -2 -6 -17 -8 -33 -6 -24
3 -30 9 -30 28 0 15 -6 24 -16 24 -8 0 -20 13 -25 29 -6 16 -17 32 -24 35 -9
3 -13 18 -11 45 3 36 1 39 -15 31 -9 -6 -20 -15 -23 -22 -3 -7 -3 -3 0 10 4
17 1 22 -13 22 -15 0 -19 8 -20 41 -2 50 -8 57 -33 41 -25 -16 -30 -15 -30 3
0 10 11 15 35 15 23 0 35 5 35 14 0 8 7 17 16 20 23 9 36 7 29 -4 -3 -5 -3
-20 1 -34 l6 -25 37 28 c20 16 52 32 71 36 19 4 41 12 48 17 17 14 15 31 -3
24 -8 -3 -15 -1 -15 5 0 5 13 15 29 20 22 8 28 15 24 30 -3 10 -2 19 2 19 17
0 75 -42 69 -51 -3 -5 2 -9 10 -9 18 0 56 -34 56 -50 0 -5 7 -10 15 -10 8 0
19 -9 25 -20 6 -11 29 -29 50 -40 22 -11 40 -24 40 -29 0 -24 120 -111 155
-111 5 0 22 -7 37 -14 16 -9 30 -11 33 -5 4 5 1 9 -4 9 -6 0 -11 6 -11 14 0 8
-13 20 -30 28 -16 7 -30 17 -30 21 0 4 -16 23 -35 40 -34 31 -35 34 -24 65 10
29 9 35 -7 47 -11 8 -24 15 -30 15 -7 0 -14 7 -18 15 -3 8 -13 15 -23 15 -15
1 -14 3 4 13 15 8 19 17 14 26 -5 7 -14 11 -20 7 -6 -4 -17 8 -26 30 -20 48
-19 51 6 28 l21 -19 -7 39 c-8 38 -7 39 19 32 23 -6 26 -3 26 17 0 34 6 36 52
22 36 -10 46 -9 81 8 32 15 47 17 78 9 23 -6 41 -6 45 -1 8 14 24 10 24 -6 0
-8 -5 -15 -12 -15 -6 0 -9 -3 -5 -6 3 -3 21 1 39 11 37 19 238 31 238 14 0
-14 27 -11 42 5 8 7 30 17 49 21 19 4 50 15 69 25 19 9 56 20 83 23 26 4 67
15 90 26 36 16 50 18 89 10 39 -9 53 -7 87 10 37 17 43 18 56 4 8 -8 15 -19
15 -25 0 -6 9 -3 19 6 19 17 61 15 61 -3 0 -4 12 -7 28 -6 25 0 27 -3 30 -43
3 -37 6 -42 18 -31 8 6 14 16 14 22 0 13 50 67 62 67 14 0 9 -29 -6 -37 -8 -4
-23 -30 -34 -58 -13 -34 -26 -51 -40 -53 -14 -2 -18 -9 -15 -23 3 -10 0 -19
-6 -19 -6 0 -11 -4 -11 -10 0 -5 6 -10 13 -10 14 1 131 155 141 188 4 12 14
22 22 22 17 0 16 3 5 -38 -8 -25 -7 -32 5 -32 8 0 14 9 14 20 0 24 15 27 24 5
3 -9 22 -23 42 -31 20 -8 55 -27 77 -42 28 -19 42 -23 45 -14 2 6 11 12 19 12
9 0 13 -6 10 -14 -4 -10 5 -15 36 -18 23 -2 43 -1 45 4 2 4 14 1 26 -7 41 -27
36 -3 -10 51 -33 40 -44 59 -39 74 3 11 10 20 14 20 4 0 13 17 20 38 9 28 10
44 1 66 -8 23 -8 31 2 37 10 7 10 11 0 21 -6 6 -12 18 -12 26 0 7 -13 25 -30
39 -29 24 -41 63 -19 63 6 0 9 7 5 15 -3 10 3 17 20 21 17 4 23 11 20 21 -3 8
-6 19 -6 24 0 4 -6 6 -14 3 -8 -3 -19 3 -26 15 -6 12 -20 21 -30 21 -11 0 -20
6 -20 13 0 14 -77 67 -97 67 -7 0 -13 9 -13 20 0 10 -9 24 -19 30 -30 16 -36
12 -16 -10 18 -20 15 -24 -18 -20 -10 1 -25 -4 -33 -11 -13 -10 -17 -10 -25 2
-8 12 -10 12 -18 -1 -6 -9 -6 -19 0 -26 17 -20 0 -41 -28 -36 -18 3 -24 1 -19
-7 4 -6 14 -11 22 -11 8 0 14 -5 14 -11 0 -7 -10 -9 -26 -6 -18 3 -24 1 -20
-9 3 -8 -1 -14 -8 -14 -17 0 -67 46 -58 54 3 4 -1 4 -11 0 -9 -3 -15 -10 -12
-14 3 -5 2 -15 -1 -24 -6 -14 -8 -14 -24 4 -13 15 -25 19 -49 14 -23 -5 -32
-2 -37 10 -9 24 -37 21 -29 -4 12 -38 -16 -20 -32 20 -15 38 -17 39 -35 24
-23 -21 -28 -16 -35 34 -3 26 0 50 12 71 18 36 37 133 23 125 -4 -3 -8 -11 -8
-18 0 -32 -104 -96 -188 -116 -30 -7 -76 -10 -103 -8 -27 3 -49 2 -49 -3 0 -4
-10 -11 -22 -15 -12 -3 -45 -28 -72 -54 -65 -61 -82 -69 -153 -74 -83 -7 -156
11 -201 49 -20 18 -52 42 -71 53 -31 19 -37 19 -70 7 -39 -15 -69 -22 -142
-31 -53 -7 -93 10 -132 56 -14 16 -28 27 -30 23 -12 -21 8 -76 41 -109 53 -54
85 -64 186 -57 62 4 86 3 86 -6 0 -6 -4 -11 -9 -11 -5 0 -11 -9 -14 -20 -3
-11 -10 -20 -17 -20 -7 0 -14 9 -17 20 -8 32 -28 23 -49 -20 -23 -48 -31 -50
-31 -10 0 34 0 35 -29 44 -17 5 -27 -2 -48 -32 -14 -21 -26 -45 -26 -53 -1
-10 -4 -9 -15 4 -13 18 -15 16 -42 -21 -15 -22 -33 -48 -39 -58 -18 -29 -27
-9 -11 23 8 15 17 41 21 57 7 29 7 29 -16 12 -13 -9 -35 -24 -50 -34 -15 -9
-33 -29 -39 -44 -6 -16 -15 -28 -20 -28 -13 0 -11 14 3 28 6 6 8 15 4 19 -7 7
-98 -82 -152 -148 -17 -21 -29 -26 -55 -23 -41 5 -43 7 -29 35 11 20 10 21
-11 16 -13 -4 -29 -7 -35 -7 -7 0 -15 -8 -18 -17 -4 -10 -17 -38 -30 -63 -26
-49 -25 -60 10 -98 29 -30 29 -33 3 -63 -18 -21 -18 -24 -5 -27 19 -4 21 -28
4 -38 -8 -5 -6 -10 7 -14 18 -6 17 -10 -13 -39 -49 -50 -37 -57 28 -16 22 14
42 25 45 25 11 0 4 -29 -8 -37 -8 -4 -16 -16 -20 -25 -3 -10 -14 -18 -23 -18
-13 0 -14 -3 -5 -14 18 -22 -13 -43 -34 -23 -8 9 -15 20 -15 26 0 6 -4 11 -9
11 -5 0 -12 9 -16 19 -4 13 -12 18 -22 14 -14 -6 -15 1 -10 50 3 33 2 57 -4
57 -5 0 -9 7 -9 15 0 15 -35 57 -42 50 -2 -2 -2 14 -2 36 1 21 -2 42 -7 45
-17 10 -9 52 13 66 20 13 21 18 10 42 -12 26 -12 26 -38 9 -26 -17 -27 -17
-20 5 6 17 4 21 -8 16 -9 -3 -27 5 -43 20 -15 14 -31 26 -35 26 -5 0 -8 9 -8
19 0 25 -17 36 -34 22 -10 -8 -16 -5 -26 13 -7 13 -9 30 -5 37 5 7 4 10 -3 5
-11 -7 -52 43 -52 66 -1 17 -24 48 -38 48 -6 0 -16 17 -22 38 -15 48 -31 83
-48 104 -8 9 -11 21 -8 27 4 5 2 12 -3 16 -6 3 -10 25 -11 48 -1 84 -3 96 -11
91 -5 -3 -9 6 -9 20 0 14 -5 28 -10 31 -6 4 -10 14 -9 23 1 10 -1 28 -4 42 -4
14 -8 37 -10 52 -2 15 -6 30 -10 34 -4 4 -2 13 4 21 9 10 8 21 -3 43 -9 18
-15 57 -14 95 1 36 -3 66 -7 68 -4 1 -1 17 8 35 9 17 13 37 10 42 -4 6 5 28
19 49 18 25 26 48 24 69 -2 17 2 30 7 29 6 -1 9 -5 7 -9 -1 -5 2 -8 7 -8 11 0
21 25 21 55 0 13 5 27 11 31 8 4 7 9 -2 15 -11 6 -9 9 7 9 12 0 31 -9 43 -19
12 -10 37 -22 55 -25 31 -6 60 -36 34 -36 -6 0 -3 -9 7 -20 10 -11 22 -20 27
-20 5 0 22 -10 38 -21 21 -16 38 -20 62 -16 20 3 41 0 52 -9 16 -11 23 -11 47
1 35 19 43 19 35 0 -4 -10 1 -15 17 -16 44 -2 72 3 95 17 12 8 27 12 32 9 5
-3 12 0 15 6 11 17 -16 38 -65 52 -51 15 -63 41 -36 82 37 56 77 53 116 -9 11
-19 36 -44 54 -55 40 -25 101 -28 110 -6 3 8 14 15 25 15 11 0 26 3 35 6 21 8
57 68 65 108 6 27 11 31 45 34 43 4 146 -35 146 -55 0 -7 7 -13 16 -13 9 0 14
-6 12 -12 -3 -7 -35 -18 -71 -24 -75 -12 -98 -24 -46 -24 46 1 119 16 130 27
15 15 -5 61 -45 103 -28 30 -36 44 -28 52 8 8 30 -2 79 -35 62 -42 69 -45 81
-30 20 27 14 47 -23 71 -19 12 -35 27 -35 33 0 17 48 2 85 -27 17 -13 43 -24
56 -24 22 0 25 5 26 38 1 20 4 65 6 100 l4 63 -28 -6 c-21 -5 -33 0 -53 22
-20 21 -26 24 -26 11 0 -24 -16 -31 -40 -16 -27 17 -25 31 11 73 17 19 26 35
20 35 -6 0 -16 -9 -23 -20 -15 -23 -38 -27 -38 -5 0 8 -4 15 -10 15 -13 0 -13
-37 -1 -45 12 -7 7 -58 -5 -62 -16 -5 -34 49 -36 106 l-2 56 -3 -47 c-2 -27
-7 -48 -10 -48 -11 0 -53 43 -53 53 0 14 -62 89 -68 82 -3 -3 7 -19 23 -35 39
-41 29 -44 -23 -9 -23 16 -50 29 -60 29 -18 0 -54 19 -37 20 16 0 -18 20 -35
20 -11 -1 -10 -4 4 -15 11 -8 16 -16 10 -16 -33 -4 -41 -3 -56 9 -10 8 -18 10
-22 3 -4 -6 -16 -4 -34 5 -15 7 -48 14 -74 14 -45 0 -64 13 -35 23 6 2 -2 4
-20 3 -17 -1 -35 -5 -39 -9 -15 -14 -34 -6 -34 14 0 17 -4 20 -22 14 -13 -3
-34 -8 -46 -10 -13 -2 -31 -10 -40 -18 -10 -8 -28 -20 -42 -27 l-25 -13 24 27
c28 30 23 33 -21 10 -24 -12 -36 -14 -55 -5 -13 6 -31 11 -39 11 -18 0 -90
-48 -147 -97 -20 -18 -41 -33 -47 -33 -17 0 -43 70 -45 123 -1 29 -5 63 -9 77
-3 14 -8 46 -11 72 -4 39 -11 54 -42 81 -36 33 -37 36 -35 101 1 42 -3 77 -13
95 -8 16 -12 30 -10 33 2 2 6 33 8 69 2 36 7 71 11 78 5 7 5 23 2 37 -8 30 4
101 13 85 4 -5 16 -8 26 -5 19 5 33 30 69 116 19 49 97 132 144 154 20 9 31
19 25 21 -7 3 -13 11 -13 20 0 8 6 13 13 10 16 -6 47 11 47 25 0 20 127 158
146 158 16 0 66 59 59 70 -3 5 4 14 15 20 12 6 20 7 20 1 0 -5 -6 -12 -12 -15
-7 -3 1 -3 17 1 17 3 37 11 45 18 8 7 22 15 30 18 8 2 3 3 -12 1 -16 -2 -28 1
-28 6 0 13 34 19 90 18 48 0 153 22 167 36 4 4 -16 6 -44 5 -29 -2 -55 0 -58
3 -6 6 124 20 178 18 20 0 52 6 70 14 17 8 70 17 117 19 47 2 101 9 120 15 19
6 55 16 80 23 25 6 53 15 62 20 24 12 56 11 60 -2 2 -7 17 -8 42 -3 34 6 37 8
22 19 -15 11 -13 14 14 25 28 12 67 11 155 -4 17 -3 22 -3 12 0 -35 11 -5 26
37 19 22 -4 66 -8 96 -9z m-1040 -6 c0 -5 -4 -10 -10 -10 -5 0 -10 5 -10 10 0
6 5 10 10 10 6 0 10 -4 10 -10z m397 4 c-3 -3 -12 -4 -19 -1 -8 3 -5 6 6 6 11
1 17 -2 13 -5z m1066 -1 c-7 -2 -19 -2 -25 0 -7 3 -2 5 12 5 14 0 19 -2 13 -5z
m-236 -15 c29 -11 46 -28 26 -28 -13 0 -82 26 -89 33 -11 11 27 8 63 -5z
m-1157 -8 c0 -5 -4 -10 -10 -10 -5 0 -10 5 -10 10 0 6 5 10 10 10 6 0 10 -4
10 -10z m480 0 c0 -5 -8 -10 -17 -10 -15 0 -16 2 -3 10 19 12 20 12 20 0z
m-730 -29 c0 -9 -24 -21 -43 -21 -6 0 -2 7 9 15 22 17 34 19 34 6z m1668 2
c-10 -2 -28 -2 -40 0 -13 2 -5 4 17 4 22 1 32 -1 23 -4z m-2542 -30 c-10 -10
-19 5 -10 18 6 11 8 11 12 0 2 -7 1 -15 -2 -18z m1514 17 c0 -12 -44 -12 -80
0 -20 6 -14 8 28 9 28 1 52 -3 52 -9z m-525 -10 c-3 -5 -13 -10 -21 -10 -8 0
-12 5 -9 10 3 6 13 10 21 10 8 0 12 -4 9 -10z m1663 -2 c-3 -7 -18 -15 -34
-16 -16 -2 -34 -8 -40 -13 -14 -11 -92 -1 -101 14 -4 7 13 8 50 4 32 -3 57 -2
57 3 0 9 22 17 53 19 11 1 17 -4 15 -11z m-2694 -23 c-6 -16 -24 -21 -24 -7 0
11 11 22 21 22 5 0 6 -7 3 -15z m4024 -74 c5 -61 -4 -132 -22 -156 -10 -15
-12 2 -11 101 3 138 2 131 16 117 7 -7 14 -34 17 -62z m-3388 -281 c0 -5 -4
-10 -10 -10 -5 0 -10 5 -10 10 0 6 5 10 10 10 6 0 10 -4 10 -10z m-1133 -52
c-3 -8 -6 -5 -6 6 -1 11 2 17 5 13 3 -3 4 -12 1 -19z m263 -98 c0 -11 -4 -20
-9 -20 -5 0 -7 9 -4 20 3 11 7 20 9 20 2 0 4 -9 4 -20z m31 -43 c-17 -17 -24
-1 -10 25 12 21 14 21 17 4 2 -10 -1 -23 -7 -29z m-114 -34 c-3 -10 -5 -4 -5
12 0 17 2 24 5 18 2 -7 2 -21 0 -30z m83 6 c0 -11 -4 -18 -10 -14 -5 3 -7 12
-3 20 7 21 13 19 13 -6z m120 -64 c0 -8 -4 -15 -10 -15 -5 0 -10 7 -10 15 0 8
5 15 10 15 6 0 10 -7 10 -15z m-164 -30 c-3 -20 -16 -31 -16 -13 0 13 8 28 16
28 1 0 1 -7 0 -15z m2899 -604 c3 -5 -12 -19 -33 -31 -21 -12 -47 -35 -56 -52
-24 -40 -31 -29 -10 15 13 28 47 56 91 76 1 1 4 -3 8 -8z m402 -106 c-32 -28
-25 -31 24 -11 45 18 166 29 150 13 -26 -26 -10 -36 24 -15 43 25 56 18 21
-10 l-26 -20 38 -5 c20 -4 47 -4 60 -1 26 7 29 -4 5 -21 -15 -11 -12 -14 19
-24 20 -7 39 -18 42 -26 3 -8 14 -12 25 -10 25 5 37 -11 22 -28 -7 -10 -1 -12
29 -12 21 0 36 -3 34 -7 -3 -4 0 -17 6 -29 15 -26 5 -37 -19 -22 -16 10 -20 8
-25 -10 -4 -14 -9 -18 -13 -11 -13 18 -85 28 -94 13 -6 -10 -11 -10 -23 1 -21
16 -33 5 -16 -15 10 -12 10 -15 -4 -15 -9 0 -27 6 -39 14 -12 8 -58 17 -101
20 -43 4 -83 9 -89 13 -15 9 -477 4 -496 -6 -9 -4 -31 -11 -48 -14 -31 -6 -32
-5 -20 13 6 11 18 19 26 18 8 -2 35 16 60 39 25 24 51 43 57 43 5 0 34 11 62
25 29 14 57 25 64 25 6 0 26 12 45 26 26 20 40 24 63 19 29 -6 38 -3 115 39
44 23 54 19 22 -9z m-663 -164 c-5 -10 -10 9 -14 49 -4 41 -2 70 4 79 8 11 12
-1 14 -49 2 -35 0 -70 -4 -79z m82 92 c-10 -10 -19 5 -10 18 6 11 8 11 12 0 2
-7 1 -15 -2 -18z m1034 -23 c0 -14 -17 -21 -34 -14 -12 5 -14 10 -6 20 12 13
40 9 40 -6z m-1270 -91 c0 -6 -4 -7 -10 -4 -5 3 -10 11 -10 16 0 6 5 7 10 4 6
-3 10 -11 10 -16z m-55 -9 c3 -5 1 -10 -4 -10 -6 0 -11 5 -11 10 0 6 2 10 4
10 3 0 8 -4 11 -10z m819 -46 c42 -7 106 -31 106 -40 0 -7 -112 4 -161 17 -44
11 -176 -4 -237 -28 -36 -14 -46 -14 -68 -3 -36 20 -18 30 88 50 89 17 178 18
272 4z m-497 0 c-3 -3 -12 -4 -19 -1 -8 3 -5 6 6 6 11 1 17 -2 13 -5z m-1409
-75 c98 -20 190 -46 208 -61 6 -4 19 -6 28 -2 9 3 16 1 16 -6 0 -6 -4 -8 -10
-5 -5 3 -10 2 -10 -3 0 -5 -14 -9 -32 -10 -46 -1 -171 -23 -188 -33 -9 -5 23
-9 82 -9 67 0 98 -4 101 -12 4 -10 8 -10 15 1 8 11 18 10 61 -9 57 -26 64 -39
8 -15 -47 19 -67 19 -67 -1 0 -14 -10 -15 -72 -10 -81 8 -166 -7 -283 -49 -70
-25 -115 -32 -115 -17 0 13 154 81 199 88 23 4 44 11 47 16 4 6 -1 8 -12 5
-11 -3 -37 -8 -59 -12 -64 -10 -219 -57 -236 -72 -8 -7 -23 -13 -33 -13 -9 0
-26 -5 -37 -11 -16 -8 -25 -7 -37 4 -9 8 -28 17 -42 19 -14 1 -29 6 -35 11
-43 32 -57 48 -51 55 4 4 17 -4 29 -18 13 -16 18 -19 14 -7 -4 11 1 25 13 37
24 24 25 29 3 46 -16 12 -16 15 -3 24 14 9 81 15 128 11 21 -2 22 0 12 20 -15
26 4 54 20 29 7 -11 14 -12 32 -3 75 35 168 39 306 12z m1746 6 c11 -8 15 -15
9 -15 -19 0 -43 12 -43 21 0 13 12 11 34 -6z m924 -24 c7 -4 12 -12 10 -17 -3
-9 11 -50 35 -104 6 -14 12 -34 14 -45 1 -11 4 -29 5 -40 5 -34 -17 -28 -27 8
-5 19 -16 42 -24 51 -11 13 -11 16 0 16 9 0 10 3 4 8 -5 4 -16 15 -24 25 -11
14 -11 20 0 33 11 13 10 17 -4 25 -9 6 -21 19 -27 29 -9 16 -7 20 7 20 10 0
24 -4 31 -9z m-927 -34 c-5 -5 -17 -7 -26 -3 -14 5 -15 9 -5 21 10 12 16 13
27 4 9 -8 10 -16 4 -22z m-1431 -17 c0 -5 -7 -10 -15 -10 -8 0 -15 5 -15 10 0
6 7 10 15 10 8 0 15 -4 15 -10z m1945 -30 c3 -5 2 -10 -4 -10 -5 0 -13 5 -16
10 -3 6 -2 10 4 10 5 0 13 -4 16 -10z m-2185 -99 c0 -6 -4 -13 -10 -16 -5 -3
-10 1 -10 9 0 9 5 16 10 16 6 0 10 -4 10 -9z m1325 -1 c11 -18 -5 -31 -26 -20
-11 6 -17 15 -14 21 8 12 32 12 40 -1z m-1319 -41 c10 -17 -13 -36 -27 -22
-12 12 -4 33 11 33 5 0 12 -5 16 -11z m2676 -70 c-5 -31 -6 -32 -31 -24 -20 6
-20 8 -4 31 19 30 39 26 35 -7z m3 -129 c3 -5 -1 -10 -9 -10 -9 0 -16 5 -16
10 0 6 4 10 9 10 6 0 13 -4 16 -10z m-2885 -4 c0 -11 -19 -15 -25 -6 -3 5 1
10 9 10 9 0 16 -2 16 -4z m1607 -827 c9 -9 8 -18 -5 -36 -15 -24 -16 -25 -23
-5 -6 15 -14 19 -28 15 -28 -7 -27 11 2 25 29 14 41 14 54 1z m547 -65 c4 -9
4 -19 2 -21 -8 -8 -26 8 -26 23 0 19 16 18 24 -2z m-509 -14 c3 -5 1 -10 -4
-10 -6 0 -11 5 -11 10 0 6 2 10 4 10 3 0 8 -4 11 -10z m410 0 c3 -5 1 -10 -4
-10 -6 0 -11 5 -11 10 0 6 2 10 4 10 3 0 8 -4 11 -10z m186 -37 c43 -24 48
-29 34 -39 -10 -8 -12 -14 -6 -19 6 -3 11 -1 11 5 0 6 5 8 10 5 16 -10 12 -42
-6 -49 -9 -4 -24 0 -34 9 -9 8 -21 15 -26 15 -20 0 -69 82 -57 94 10 10 21 7
74 -21z m-966 7 c3 -5 1 -10 -4 -10 -6 0 -11 5 -11 10 0 6 2 10 4 10 3 0 8 -4
11 -10z m515 -6 c0 -8 -4 -12 -10 -9 -5 3 -10 10 -10 16 0 5 5 9 10 9 6 0 10
-7 10 -16z m50 -5 c0 -6 -4 -7 -10 -4 -5 3 -10 11 -10 16 0 6 5 7 10 4 6 -3
10 -11 10 -16z m-985 -29 c3 -5 1 -10 -4 -10 -6 0 -11 5 -11 10 0 6 2 10 4 10
3 0 8 -4 11 -10z m249 -56 c8 -21 8 -49 -1 -41 -3 4 -12 2 -18 -3 -10 -8 -12
-3 -10 22 3 39 3 38 14 38 5 0 12 -7 15 -16z m-410 -19 c-4 -8 -8 -15 -10 -15
-2 0 -4 7 -4 15 0 8 4 15 10 15 5 0 7 -7 4 -15z m2016 -71 c0 -8 -4 -12 -10
-9 -5 3 -10 10 -10 16 0 5 5 9 10 9 6 0 10 -7 10 -16z m-2346 -46 c-5 -8 -2
-9 9 -5 19 7 23 -8 6 -19 -6 -3 -15 0 -20 7 -12 19 -11 29 2 29 5 0 7 -5 3
-12z m722 -25 c-11 -11 -19 6 -11 24 8 17 8 17 12 0 3 -10 2 -21 -1 -24z m259
7 c3 -5 1 -10 -4 -10 -6 0 -11 5 -11 10 0 6 2 10 4 10 3 0 8 -4 11 -10z m115
-6 c0 -11 6 -15 20 -11 25 7 27 -20 3 -39 -25 -18 -30 -17 -37 9 -7 21 -7 22
-17 2 -8 -18 -9 -17 -4 5 2 14 5 31 5 38 0 6 7 12 15 12 8 0 15 -7 15 -16z
m1225 7 c3 -5 1 -12 -4 -15 -5 -3 -11 1 -15 9 -6 16 9 21 19 6z m-2335 -26 c0
-8 -4 -15 -10 -15 -5 0 -7 7 -4 15 4 8 8 15 10 15 2 0 4 -7 4 -15z m1190 -1
c0 -8 -5 -12 -10 -9 -6 4 -8 11 -5 16 9 14 15 11 15 -7z m-169 -61 c-8 -15
-10 -15 -11 -2 0 17 10 32 18 25 2 -3 -1 -13 -7 -23z m-1561 1 c0 -14 -3 -14
-15 -4 -8 7 -15 14 -15 16 0 2 7 4 15 4 8 0 15 -7 15 -16z m1313 -15 c22 -2
41 1 45 8 6 9 15 6 35 -10 26 -20 27 -24 15 -50 -7 -15 -18 -25 -25 -23 -6 3
-19 -2 -30 -9 -25 -19 -53 -19 -53 1 0 12 6 15 25 10 14 -4 25 -2 25 4 0 5 -6
10 -12 10 -7 0 -22 3 -34 6 -13 3 -28 -1 -39 -13 -24 -24 -82 -27 -87 -5 -3 9
4 26 14 36 16 18 18 18 18 2 0 -9 5 -14 10 -11 6 3 10 13 10 22 0 18 32 45 40
33 3 -4 22 -10 43 -11z m1474 -161 c-3 -8 -6 -5 -6 6 -1 11 2 17 5 13 3 -3 4
-12 1 -19z m-2573 -93 c-4 -8 -11 -15 -16 -15 -6 0 -5 6 2 15 7 8 14 15 16 15
2 0 1 -7 -2 -15z m516 -35 c0 -5 -7 -10 -15 -10 -8 0 -15 5 -15 10 0 6 7 10
15 10 8 0 15 -4 15 -10z m1925 -400 c3 -5 1 -10 -4 -10 -6 0 -11 5 -11 10 0 6
2 10 4 10 3 0 8 -4 11 -10z m-855 -50 c0 -5 -2 -10 -4 -10 -3 0 -8 5 -11 10
-3 6 -1 10 4 10 6 0 11 -4 11 -10z m680 -191 c0 -11 -4 -17 -10 -14 -5 3 -10
13 -10 21 0 8 5 14 10 14 6 0 10 -9 10 -21z m-975 -88 c-3 -6 -11 -11 -17 -11
-6 0 -6 6 2 15 14 17 26 13 15 -4z m199 -16 c-16 -24 -34 -33 -34 -17 1 17 19
33 48 41 1 1 -5 -10 -14 -24z m-662 -47 c-5 -34 -17 -48 -41 -48 -11 0 -10 5
4 20 22 24 13 26 -21 4 -28 -19 -43 -11 -28 14 9 14 60 39 85 41 3 1 3 -14 1
-31z m718 10 c0 -7 -16 -26 -36 -41 -34 -28 -36 -28 -49 -10 -14 17 -14 17
-15 -1 0 -20 -27 -56 -42 -56 -4 0 -8 6 -8 14 0 8 -6 16 -12 19 -13 4 56 40
80 41 8 1 20 9 27 20 8 10 18 15 24 12 5 -4 12 -2 16 4 8 14 15 13 15 -2z m20
-48 c0 -6 -6 -13 -14 -16 -8 -3 -16 -13 -19 -23 -2 -10 -14 -20 -26 -24 -31
-8 -27 21 4 33 14 5 28 17 31 25 7 17 24 20 24 5z m40 -59 c0 -16 -7 -34 -15
-41 -13 -11 -15 -8 -15 13 0 32 9 57 21 57 5 0 9 -13 9 -29z m-823 -3 c-3 -8
-6 -5 -6 6 -1 11 2 17 5 13 3 -3 4 -12 1 -19z m689 -55 c-14 -13 -26 -28 -26
-33 0 -6 -4 -10 -10 -10 -18 0 -11 21 17 50 15 16 31 26 36 23 5 -3 -3 -16
-17 -30z m156 -5 c-6 -6 -15 -9 -18 -5 -4 3 -4 14 0 23 5 13 9 15 18 6 9 -9 9
-15 0 -24z m95 17 c8 -22 -6 -33 -17 -15 -13 20 -12 30 0 30 6 0 13 -7 17 -15z
m-717 -24 c0 -32 -14 -49 -25 -31 -9 15 3 60 15 60 6 0 10 -13 10 -29z m-173
-36 c-4 -8 -11 -15 -17 -15 -7 0 -7 6 0 21 13 23 26 19 17 -6z m748 -15 c3 -5
1 -10 -4 -10 -6 0 -11 5 -11 10 0 6 2 10 4 10 3 0 8 -4 11 -10z m955 -14 c0
-3 -4 -8 -10 -11 -5 -3 -10 -1 -10 4 0 6 5 11 10 11 6 0 10 -2 10 -4z m-1310
-56 c-13 -11 -28 -20 -34 -20 -14 1 32 40 47 40 5 0 0 -9 -13 -20z m1298 -56
c-2 -27 -8 -48 -15 -51 -7 -3 -10 -9 -7 -14 3 -5 2 -15 -3 -21 -4 -7 -9 -44
-9 -82 -1 -38 1 -64 5 -58 4 6 5 -19 3 -56 -2 -37 -8 -72 -12 -77 -13 -15 -7
-105 6 -105 12 0 9 -40 -6 -75 -5 -11 -11 -31 -13 -43 -5 -23 -5 -23 14 -6 17
15 22 16 29 4 5 -8 5 -19 1 -25 -5 -5 -9 -17 -9 -25 -8 -93 -7 -122 5 -132 14
-11 10 -65 -6 -96 -6 -11 -8 -22 -4 -25 3 -3 -11 -28 -31 -55 -43 -59 -37 -65
59 -66 39 -1 59 -5 58 -12 -1 -7 6 -10 17 -7 15 4 20 0 20 -16 0 -18 5 -21 41
-18 l41 4 -6 -39 c-7 -43 -5 -44 30 -21 26 17 125 30 123 16 -5 -28 3 -34 38
-31 28 2 40 9 50 28 19 38 26 64 24 78 -1 8 3 20 9 27 9 11 9 32 1 82 -5 37
-9 96 -8 131 l1 62 31 0 c17 0 40 -7 52 -15 12 -9 26 -14 30 -13 15 4 73 -21
73 -32 0 -6 4 -8 10 -5 18 11 60 -30 86 -85 22 -46 27 -74 32 -165 4 -97 2
-115 -16 -150 -29 -58 -82 -233 -82 -272 0 -19 -11 -55 -24 -81 -35 -69 -59
-160 -52 -197 6 -28 -4 -49 -67 -151 -40 -66 -103 -171 -140 -234 -38 -63 -74
-124 -80 -135 -18 -30 -71 -116 -93 -150 -45 -72 -126 -206 -163 -271 -22 -39
-51 -81 -65 -95 -14 -13 -26 -30 -26 -36 0 -7 -10 -15 -23 -18 -13 -4 -31 -19
-41 -36 -9 -16 -22 -29 -28 -29 -16 0 -125 -109 -160 -160 -18 -25 -40 -54
-50 -65 -11 -11 -34 -52 -52 -92 -18 -39 -52 -100 -76 -135 -92 -133 -190
-279 -190 -284 0 -13 -47 -74 -57 -74 -7 0 -13 -6 -13 -14 0 -8 -10 -32 -22
-52 l-22 -37 -47 99 c-51 104 -82 163 -112 204 -9 13 -17 32 -17 42 0 10 -4
18 -9 18 -4 0 -25 28 -46 63 -77 124 -205 272 -435 500 -219 217 -346 327
-424 366 -63 33 -200 135 -260 196 -162 162 -285 304 -314 360 -16 33 -50 87
-75 120 -24 33 -48 76 -52 95 -17 84 -111 250 -203 358 -49 58 -86 145 -152
353 -40 125 -80 293 -80 331 0 10 5 18 11 18 7 0 9 -10 5 -24 -3 -14 -2 -27 3
-30 5 -3 11 4 14 15 4 15 11 19 25 15 14 -5 26 1 41 20 l21 27 0 -24 c0 -13 9
-42 19 -64 l19 -40 1 33 c1 35 14 42 30 15 9 -16 10 -15 11 6 0 20 2 22 15 11
9 -7 18 -10 22 -6 3 3 13 -4 21 -15 12 -18 12 -23 1 -30 -11 -6 -10 -9 4 -15
10 -3 17 -14 16 -23 -3 -29 1 -41 11 -41 6 0 21 -12 34 -27 24 -28 63 -27 53
1 -6 15 19 43 30 33 12 -13 44 14 38 33 -4 13 3 24 25 40 16 12 30 28 30 36 0
8 8 14 18 14 10 0 27 6 37 14 16 12 17 16 6 29 -7 9 -10 21 -6 27 4 6 1 17 -5
25 -10 12 -9 15 5 15 18 0 18 21 0 63 -5 13 -2 17 13 17 23 0 40 19 25 29 -29
19 -39 101 -12 101 4 0 6 16 3 36 -3 29 -1 35 11 31 30 -12 24 13 -11 41 -20
17 -34 36 -32 44 3 7 -2 18 -11 25 -9 6 -13 14 -10 18 10 10 79 -22 85 -40 3
-8 16 -15 29 -15 12 0 30 -9 40 -20 10 -11 26 -20 37 -20 20 0 59 -19 70 -35
4 -5 8 -20 8 -32 0 -13 4 -23 10 -23 5 0 14 -10 21 -21 8 -17 8 -23 -1 -29
-20 -13 0 -32 26 -26 17 5 32 -1 54 -20 16 -15 27 -31 23 -37 -3 -5 -2 -12 3
-16 5 -3 22 -23 37 -43 15 -21 35 -38 43 -38 7 0 14 -7 14 -15 0 -8 6 -12 14
-9 8 3 16 -3 19 -15 3 -12 28 -30 63 -47 33 -15 66 -33 75 -40 8 -8 37 -25 62
-38 49 -25 65 -20 58 18 -2 15 1 17 16 11 10 -4 28 -10 41 -12 12 -3 22 -10
22 -17 0 -19 58 -17 72 3 18 24 66 39 111 33 22 -2 50 1 63 9 19 10 37 10 74
3 37 -8 55 -7 72 2 13 8 34 13 47 14 14 0 32 6 40 14 21 17 81 37 92 30 13 -8
49 15 49 32 0 8 5 12 10 9 6 -3 13 1 16 9 3 9 17 16 30 16 13 0 38 13 55 28
31 28 34 28 63 14 22 -11 31 -12 34 -4 2 7 10 12 17 12 12 0 30 27 27 42 -1 4
5 5 13 2 10 -4 28 9 51 35 36 40 64 53 64 29 0 -9 3 -9 12 0 7 7 18 12 25 12
7 0 34 14 60 30 26 17 54 28 62 25 9 -3 12 -3 8 2 -5 4 9 12 30 18 26 7 39 18
44 35 4 14 8 21 8 15 1 -5 13 3 26 20 24 29 25 29 40 10 14 -19 14 -18 9 13
-4 21 -3 32 5 32 6 0 11 7 11 15 0 9 6 12 15 9 8 -4 15 -1 15 5 0 6 -4 11 -10
11 -15 0 -12 29 7 61 11 19 26 29 41 29 32 0 65 33 58 58 -5 15 -1 22 14 27
11 3 20 11 20 16 0 5 5 9 11 9 5 0 27 11 47 25 20 14 40 25 44 25 4 0 7 -21 6
-46z m-161 -36 c-3 -8 -6 -5 -6 6 -1 11 2 17 5 13 3 -3 4 -12 1 -19z m-1817
-214 c0 -8 -5 -12 -10 -9 -6 4 -8 11 -5 16 9 14 15 11 15 -7z m610 -245 c0 -5
-4 -9 -10 -9 -5 0 -10 7 -10 16 0 8 5 12 10 9 6 -3 10 -10 10 -16z m1369 -471
c-10 -19 -29 -24 -29 -8 0 6 5 19 12 30 16 24 31 4 17 -22z m-2492 -1414 c-3
-3 -12 -4 -19 -1 -8 3 -5 6 6 6 11 1 17 -2 13 -5z m3533 -73 c0 -12 -20 -25
-27 -18 -7 7 6 27 18 27 5 0 9 -4 9 -9z m-276 -41 c-6 -6 -28 -13 -50 -16 -37
-5 -38 -4 -20 10 22 18 87 23 70 6z m-104 -29 c0 -10 -30 -24 -37 -17 -3 3 -2
9 2 15 8 13 35 15 35 2z m-60 -21 c0 -5 -17 -12 -37 -16 -21 -3 -51 -12 -68
-20 -28 -12 -117 -38 -122 -35 -12 5 1 17 24 23 15 4 57 18 93 31 69 27 110
33 110 17z m-255 -79 c-6 -5 -23 -13 -40 -17 -27 -7 -29 -6 -16 9 7 10 25 17
39 17 16 0 22 -4 17 -9z m-148 -58 c-9 -9 -20 -13 -24 -9 -4 4 -1 11 7 16 25
16 35 11 17 -7z m-307 -699 c0 -8 -5 -12 -10 -9 -6 4 -8 11 -5 16 9 14 15 11
15 -7z m-1660 -683 c0 -6 -4 -13 -10 -16 -5 -3 -10 1 -10 9 0 9 5 16 10 16 6
0 10 -4 10 -9z m2948 -144 c26 -39 53 -82 61 -96 8 -14 46 -78 84 -141 38 -63
92 -153 120 -200 27 -47 63 -105 79 -130 16 -25 59 -104 96 -177 l67 -132 -39
-40 c-42 -43 -42 -45 -11 -58 11 -5 45 -23 76 -41 54 -31 59 -38 118 -152 71
-139 70 -142 -44 -129 -38 4 -97 8 -130 8 l-60 1 -76 80 c-42 44 -78 80 -81
80 -3 0 -22 -44 -43 -97 -72 -192 -96 -236 -118 -214 -5 5 -11 100 -13 212 -2
112 -5 245 -7 294 -2 86 -1 90 20 93 12 2 35 -4 52 -13 44 -22 40 -6 -19 90
-27 44 -65 109 -84 145 -62 116 -58 115 -101 30 -137 -269 -131 -253 -82 -243
77 16 69 42 90 -291 13 -207 15 -302 8 -309 -17 -17 -40 11 -84 107 -63 135
-102 209 -113 213 -5 2 -44 -26 -87 -62 l-78 -65 -87 1 c-109 1 -248 12 -257
21 -8 7 18 60 50 103 13 17 34 53 49 82 16 32 34 54 48 58 13 4 53 19 91 33
l67 26 -45 46 -46 47 35 64 c58 105 239 472 315 642 40 87 79 170 88 183 20
31 28 24 91 -69z m-293 73 c3 -5 1 -10 -4 -10 -6 0 -11 5 -11 10 0 6 2 10 4
10 3 0 8 -4 11 -10z"/>
<path d="M8740 10469 c0 -5 5 -7 10 -4 6 3 10 8 10 11 0 2 -4 4 -10 4 -5 0
-10 -5 -10 -11z"/>
<path d="M8806 9665 c-8 -22 -8 -22 9 -22 17 0 18 6 6 25 -7 11 -10 10 -15 -3z"/>
<path d="M6205 9310 c-3 -5 1 -10 9 -10 9 0 16 5 16 10 0 6 -4 10 -9 10 -6 0
-13 -4 -16 -10z"/>
<path d="M6525 9270 c3 -5 13 -10 21 -10 8 0 12 5 9 10 -3 6 -13 10 -21 10 -8
0 -12 -4 -9 -10z"/>
<path d="M7510 9276 c0 -2 8 -10 18 -17 15 -13 16 -12 3 4 -13 16 -21 21 -21
13z"/>
<path d="M6975 9059 c-12 -19 5 -23 22 -6 16 16 16 17 1 17 -9 0 -20 -5 -23
-11z"/>
<path d="M7460 9050 c0 -5 6 -10 14 -10 8 0 18 5 21 10 3 6 -3 10 -14 10 -12
0 -21 -4 -21 -10z"/>
<path d="M8375 8820 c-4 -6 12 -10 39 -10 25 0 46 5 46 10 0 6 -18 10 -39 10
-22 0 -43 -4 -46 -10z"/>
<path d="M7917 8813 c-21 -20 -6 -23 68 -14 6 1 3 6 -5 11 -17 11 -54 13 -63
3z"/>
<path d="M6646 8621 c-14 -5 -16 -10 -8 -15 7 -4 22 0 34 8 24 17 9 21 -26 7z"/>
<path d="M8088 8593 c7 -3 16 -2 19 1 4 3 -2 6 -13 5 -11 0 -14 -3 -6 -6z"/>
<path d="M6500 8539 c0 -11 5 -17 10 -14 6 3 10 13 10 21 0 8 -4 14 -10 14 -5
0 -10 -9 -10 -21z"/>
<path d="M6420 8525 c0 -8 5 -15 10 -15 6 0 10 7 10 15 0 8 -4 15 -10 15 -5 0
-10 -7 -10 -15z"/>
<path d="M6751 7844 c0 -11 3 -14 6 -6 3 7 2 16 -1 19 -3 4 -6 -2 -5 -13z"/>
<path d="M8931 7766 c-7 -8 -8 -17 -3 -19 4 -3 13 3 20 14 14 22 0 26 -17 5z"/>
<path d="M8240 7720 c0 -5 7 -10 16 -10 8 0 12 5 9 10 -3 6 -10 10 -16 10 -5
0 -9 -4 -9 -10z"/>
<path d="M6270 7370 c0 -5 5 -10 10 -10 6 0 10 5 10 10 0 6 -4 10 -10 10 -5 0
-10 -4 -10 -10z"/>
<path d="M7950 7230 c0 -5 5 -10 10 -10 6 0 10 5 10 10 0 6 -4 10 -10 10 -5 0
-10 -4 -10 -10z"/>
<path d="M6210 7205 c0 -8 5 -15 10 -15 6 0 10 7 10 15 0 8 -4 15 -10 15 -5 0
-10 -7 -10 -15z"/>
<path d="M8140 7140 c0 -5 12 -10 26 -10 14 0 23 4 19 10 -3 6 -15 10 -26 10
-10 0 -19 -4 -19 -10z"/>
<path d="M8105 7090 c4 -6 11 -8 16 -5 14 9 11 15 -7 15 -8 0 -12 -5 -9 -10z"/>
<path d="M7516 7082 c-2 -4 -1 -14 5 -22 7 -12 9 -10 9 8 0 23 -5 28 -14 14z"/>
<path d="M7963 7058 c-4 -7 -21 -20 -38 -27 -24 -12 -27 -15 -12 -19 11 -2 29
6 42 18 18 17 31 21 54 17 17 -4 33 -2 36 3 3 6 -5 10 -19 10 -13 0 -31 3 -39
6 -8 3 -19 -1 -24 -8z"/>
<path d="M8109 7012 c-11 -2 -15 -10 -12 -23 3 -10 0 -19 -6 -19 -6 0 -11 -16
-11 -36 0 -21 -4 -33 -10 -29 -17 11 -49 -5 -43 -21 6 -17 44 -18 65 -1 27 22
57 74 48 83 -4 5 -10 18 -12 29 -2 13 -9 19 -19 17z"/>
<path d="M7760 6956 c-14 -8 -43 -17 -65 -20 -68 -12 -78 -28 -14 -23 58 5
119 30 119 47 0 13 -10 12 -40 -4z"/>
<path d="M7070 6935 c-7 -8 -27 -15 -44 -16 -26 0 -28 -2 -11 -8 11 -5 28 -5
37 0 9 5 31 6 50 2 l33 -6 -19 21 c-23 26 -29 27 -46 7z"/>
<path d="M7320 6900 c20 -13 43 -13 35 0 -3 6 -16 10 -28 10 -18 0 -19 -2 -7
-10z"/>
<path d="M6645 6860 c3 -5 10 -10 16 -10 5 0 9 5 9 10 0 6 -7 10 -16 10 -8 0
-12 -4 -9 -10z"/>
<path d="M8020 6851 c0 -6 5 -13 10 -16 6 -3 10 1 10 9 0 9 -4 16 -10 16 -5 0
-10 -4 -10 -9z"/>
<path d="M6914 6616 c-3 -8 -4 -23 -2 -32 3 -17 4 -17 21 0 10 10 16 23 14 29
-6 18 -27 20 -33 3z"/>
<path d="M8460 6595 c7 -8 17 -15 22 -15 6 0 5 7 -2 15 -7 8 -17 15 -22 15 -6
0 -5 -7 2 -15z"/>
<path d="M8040 6581 c0 -5 7 -15 17 -22 15 -13 15 -12 4 9 -12 23 -21 28 -21
13z"/>
<path d="M7015 6470 c-3 -5 -1 -10 4 -10 6 0 11 5 11 10 0 6 -2 10 -4 10 -3 0
-8 -4 -11 -10z"/>
<path d="M8810 9130 c0 -5 5 -10 10 -10 6 0 10 5 10 10 0 6 -4 10 -10 10 -5 0
-10 -4 -10 -10z"/>
<path d="M8350 5375 c-5 -14 -16 -25 -25 -25 -24 0 -17 -20 11 -30 34 -13 34
-13 34 10 0 24 15 25 54 5 15 -8 34 -15 41 -15 14 0 45 26 45 38 0 7 -33 12
-87 13 -18 0 -34 7 -37 15 -8 22 -25 17 -36 -11z"/>
<path d="M8280 5265 c-14 -16 -10 -18 14 -9 9 3 16 10 16 15 0 14 -16 11 -30
-6z"/>
<path d="M7185 5041 c-6 -11 33 -26 43 -16 4 3 0 10 -8 15 -19 12 -27 12 -35
1z"/>
<path d="M8910 4799 c0 -5 5 -7 10 -4 6 3 10 8 10 11 0 2 -4 4 -10 4 -5 0 -10
-5 -10 -11z"/>
<path d="M9335 4800 c3 -5 8 -10 11 -10 2 0 4 5 4 10 0 6 -5 10 -11 10 -5 0
-7 -4 -4 -10z"/>
<path d="M7280 4420 c0 -5 7 -10 16 -10 8 0 12 5 9 10 -3 6 -10 10 -16 10 -5
0 -9 -4 -9 -10z"/>
<path d="M8265 2650 c-3 -5 -1 -10 4 -10 6 0 11 5 11 10 0 6 -2 10 -4 10 -3 0
-8 -4 -11 -10z"/>
<path d="M8253 2561 c-15 -41 -17 -81 -3 -81 13 0 22 40 18 81 l-3 34 -12 -34z"/>
<path d="M8162 2445 c0 -16 2 -22 5 -12 2 9 2 23 0 30 -3 6 -5 -1 -5 -18z"/>
<path d="M8241 2454 c0 -11 3 -14 6 -6 3 7 2 16 -1 19 -3 4 -6 -2 -5 -13z"/>
<path d="M8191 2354 c0 -11 3 -14 6 -6 3 7 2 16 -1 19 -3 4 -6 -2 -5 -13z"/>
<path d="M12750 14995 c0 -8 32 -69 39 -75 3 -3 17 -25 30 -50 14 -25 42 -71
63 -102 21 -31 38 -60 38 -64 0 -3 14 -26 30 -51 17 -24 30 -46 30 -49 0 -3
14 -25 30 -49 17 -24 30 -48 30 -53 0 -5 11 -21 25 -36 13 -14 22 -26 19 -26
-3 0 4 -10 15 -22 11 -11 18 -25 15 -30 -3 -4 0 -8 5 -8 6 0 11 -9 11 -20 0
-11 7 -23 15 -26 8 -4 12 -10 9 -15 -3 -5 -1 -9 4 -9 8 0 41 -46 62 -85 5 -10
197 -329 223 -369 7 -11 41 -66 77 -123 121 -191 156 -248 214 -345 32 -54 62
-98 68 -98 5 0 7 -4 4 -9 -3 -5 1 -11 9 -15 8 -3 15 -12 15 -21 0 -8 9 -24 20
-35 12 -12 18 -25 15 -30 -4 -6 -2 -10 3 -10 5 0 17 -17 28 -37 10 -21 21 -40
24 -43 3 -3 12 -14 20 -24 13 -18 13 -19 0 -12 -13 7 -13 6 0 -6 8 -7 16 -20
18 -28 2 -8 10 -20 17 -26 8 -6 12 -14 8 -17 -3 -4 2 -9 11 -13 9 -3 14 -9 11
-14 -2 -4 4 -16 15 -27 10 -12 16 -24 13 -27 -4 -3 -1 -6 6 -6 7 0 19 -16 27
-35 8 -19 19 -35 24 -35 6 0 10 -5 10 -12 0 -6 11 -25 23 -42 13 -17 26 -36
28 -41 6 -15 109 -182 194 -315 40 -63 109 -173 153 -245 44 -71 105 -170 137
-220 31 -49 69 -110 84 -134 14 -24 35 -56 47 -70 11 -14 51 -78 89 -141 38
-63 72 -117 75 -120 3 -3 20 -27 38 -55 l32 -50 0 1813 0 1812 -1125 0 c-619
0 -1125 -2 -1125 -5z"/>
<path d="M9492 11150 c0 -14 2 -19 5 -12 2 6 2 18 0 25 -3 6 -5 1 -5 -13z"/>
<path d="M1197 10353 c662 -2 1744 -2 2405 0 662 1 121 2 -1202 2 -1323 0
-1864 -1 -1203 -2z"/>
<path d="M0 10315 c0 -13 273 -15 2400 -15 2127 0 2400 2 2400 15 0 13 -273
15 -2400 15 -2127 0 -2400 -2 -2400 -15z"/>
<path d="M4889 10168 c-6 -24 -5 -57 2 -53 5 3 8 17 7 30 -2 21 -6 32 -9 23z"/>
<path d="M4922 10124 c-7 -8 -11 -22 -9 -32 4 -15 5 -15 6 1 0 10 6 15 11 12
6 -3 10 3 10 14 0 25 -1 25 -18 5z"/>
<path d="M5130 8259 c0 -5 5 -7 10 -4 6 3 10 8 10 11 0 2 -4 4 -10 4 -5 0 -10
-5 -10 -11z"/>
<path d="M5470 7919 c0 -5 5 -7 10 -4 6 3 10 8 10 11 0 2 -4 4 -10 4 -5 0 -10
-5 -10 -11z"/>
</g>
</svg>
